<svg width="86" height="87" viewBox="0 0 86 87" fill="none" xmlns="http://www.w3.org/2000/svg">
<path d="M23.9963 9.32568C22.9887 10.3336 22.4226 11.7005 22.4226 13.1258C22.4226 14.5511 22.9887 15.918 23.9963 16.9259L50.6026 43.5322L23.9963 70.1384C23.0172 71.1522 22.4755 72.5099 22.4877 73.9192C22.5 75.3285 23.0652 76.6766 24.0618 77.6732C25.0584 78.6698 26.4065 79.2351 27.8158 79.2473C29.2251 79.2596 30.5828 78.7178 31.5966 77.7387L62.003 47.3323C63.0106 46.3243 63.5767 44.9574 63.5767 43.5322C63.5767 42.1069 63.0106 40.74 62.003 39.7321L31.5966 9.32568C30.5886 8.31802 29.2217 7.75195 27.7965 7.75195C26.3712 7.75195 25.0043 8.31802 23.9963 9.32568Z" fill="#F98770"/>
</svg>
