<svg width="87" height="86" viewBox="0 0 87 86" fill="none" xmlns="http://www.w3.org/2000/svg">
<path d="M9.32568 23.9964C10.3336 22.9887 11.7005 22.4227 13.1258 22.4227C14.5511 22.4227 15.918 22.9887 16.9259 23.9964L43.5322 50.6026L70.1384 23.9964C71.1522 23.0173 72.5099 22.4755 73.9192 22.4878C75.3285 22.5 76.6766 23.0653 77.6732 24.0619C78.6698 25.0584 79.2351 26.4066 79.2473 27.8159C79.2596 29.2252 78.7178 30.5829 77.7387 31.5966L47.3323 62.003C46.3243 63.0107 44.9574 63.5768 43.5322 63.5768C42.1069 63.5768 40.74 63.0107 39.7321 62.003L9.32568 31.5966C8.31802 30.5887 7.75195 29.2218 7.75195 27.7965C7.75195 26.3713 8.31802 25.0044 9.32568 23.9964Z" fill="#F98770"/>
</svg>
